<?xml version="1.0" encoding="utf-8"?>
<!-- Generator: Adobe Illustrator 18.0.0, SVG Export Plug-In . SVG Version: 6.00 Build 0)  -->
<!DOCTYPE svg PUBLIC "-//W3C//DTD SVG 1.1//EN" "http://www.w3.org/Graphics/SVG/1.1/DTD/svg11.dtd">
<svg version="1.1" id="Layer_1" xmlns="http://www.w3.org/2000/svg" xmlns:xlink="http://www.w3.org/1999/xlink" x="0px" y="0px"
	 viewBox="0 0 665.9 467.4" enable-background="new 0 0 665.9 467.4" xml:space="preserve">
<g>
	<defs>
		<rect id="SVGID_1_" width="665.9" height="467.4"/>
	</defs>
	<clipPath id="SVGID_2_">
		<use xlink:href="#SVGID_1_"  overflow="visible"/>
	</clipPath>
	<path clip-path="url(#SVGID_2_)" fill="#293161" d="M1.7,422.5C0.4,422,0,421,0,419.5c0-6.2,0.2-9,0.5-11.2
		c0.2-1.4,0.5-1.8,0.9-1.8c0.5,0,0.6,0.7,0.7,1.3c0.1,0.8,0.2,1.4,0.4,2.4c1.3,6.2,7,9.8,12.9,9.8c7.2,0,9.4-3.7,9.4-7
		c0-3.2-0.6-5.8-7.1-10.3l-4.7-3.3c-9.3-6.5-11.9-11.9-11.9-18.5c0-8.7,7.2-15.8,19.4-15.8c3.3,0,5.5,0.2,8.7,0.8
		c1.2,0.2,2.5,0.5,3.7,0.9c0.8,0.2,1,0.5,1,1.1c-0.2,2.4-0.3,4-0.3,10.7c0,1.4-0.2,1.9-0.8,1.9c-0.4,0-0.7-0.2-0.8-1.4
		c-0.1-0.8-0.3-2.7-1.4-4.4c-1.4-2.4-4.9-5-10.4-5c-6.2,0-8.5,3.5-8.5,7c0,2.6,0.9,5.5,6.1,9l3.9,2.6c10.6,7.1,14,11.8,14,19.4
		c0,5.2-2.4,10.4-8.1,13.8c-4.4,2.7-9.3,3.3-13.2,3.3C8.7,424.6,4.6,423.9,1.7,422.5"/>
	<path clip-path="url(#SVGID_2_)" fill="#293161" d="M59.9,402.8c0,9,1.2,12.7,5.2,15.3c2.7,1.5,4.8,1.6,6.2,1.6c2,0,4.8-0.4,7-2.1
		c4-3.1,3.9-10.3,3.9-16.9v-7.7c0-9.6,0-11.1-0.2-13.2c-0.2-2.5-0.7-3.6-2.9-4c-0.8-0.2-1-0.2-2.5-0.3c-1-0.1-1.2-0.5-1.2-0.8
		c0-0.5,0.4-0.7,1.5-0.7c4,0,8.1,0.2,9.5,0.2c1.2,0,5.7-0.2,9.2-0.2c1.1,0,1.4,0.3,1.4,0.8c0,0.3-0.2,0.6-1.1,0.8
		c-0.7,0.1-1.2,0.1-2.1,0.3c-1.8,0.3-2.4,1.2-2.5,4c-0.2,2.1-0.2,3.6-0.2,13.2v6.3c0,7.6-0.3,15.6-7.1,21c-4.1,3.2-9.4,4.3-14.1,4.3
		c-6.6,0-12.5-1.1-16.5-4.4c-3.7-2.9-6.4-7.7-6.4-17.2v-10c0-10.3,0-11.9-0.2-14.1c-0.2-1.7-0.5-2.7-2.1-3c-0.8-0.2-2.4-0.4-3-0.5
		c-1.1-0.2-1.2-0.5-1.2-0.8c0-0.4,0.3-0.7,1.7-0.7c2.7,0,10.3,0.2,10.5,0.2c0.4,0,9.3-0.2,11.7-0.2c1.3,0,1.7,0.3,1.7,0.7
		c0,0.5-0.2,0.7-1.1,0.8c-0.6,0.1-1.7,0.2-2.4,0.3c-1.9,0.4-2.4,1.8-2.5,3.9c-0.2,2.1-0.2,5.3-0.2,13.4V402.8z"/>
	<path clip-path="url(#SVGID_2_)" fill="#293161" d="M108,376.2c0.1-2.2,0.3-3.3,1.3-3.3c0.4,0,0.7,0,2.6,1.4
		c3.3,2.6,13.8,11.5,22.2,19c7.5,6.6,11.1,9.6,13.1,11.4l-0.4-23.2c-0.2-3.6-0.6-5.4-3.6-5.8c-0.8-0.2-1.7-0.2-2.7-0.3
		c-0.9-0.1-1.2-0.5-1.2-0.8c0-0.5,0.6-0.8,1.3-0.8c2.5,0,7.2,0.2,10.3,0.2c1.7,0,5.2-0.2,8-0.2c1.1,0,1.4,0.3,1.4,0.7
		c0,0.3-0.2,0.8-1.1,0.8c-0.8,0.1-1.1,0.1-1.5,0.2c-2.3,0.3-3,1.3-3.3,5.5c-0.6,12.4-0.8,25.8-0.9,39c0,3.8-0.5,4.5-1.4,4.5
		c-1.1,0-3.5-1.7-8.9-6.1c-4.7-4-10.1-8.6-13.4-11.5c-3.6-3.3-9.5-8.3-15.3-13.6l0.7,21.3c0.2,4.6,0.3,6.5,2.4,7
		c1.3,0.3,2.1,0.4,3.4,0.5c1.1,0.2,1.4,0.4,1.4,0.8c0,0.5-0.5,0.8-1.7,0.8c-1.9,0-3.9-0.2-8.7-0.2c-1.9,0-7.4,0.2-9.7,0.2
		c-1.1,0-1.5-0.2-1.5-0.8c0-0.4,0.3-0.7,1.2-0.8c0.7-0.1,1.1-0.1,1.9-0.2c2.8-0.4,3.4-1.9,3.6-8C107.7,400.3,107.7,385,108,376.2"/>
	<path clip-path="url(#SVGID_2_)" fill="#293161" d="M167.7,422.6c-1.2-0.5-1.5-1.4-1.5-2.7c0-5.7,0.2-8.1,0.4-10.2
		c0.2-1.2,0.5-1.4,0.9-1.4c0.4,0,0.6,0.3,0.7,1c0.1,0.6,0.1,1.1,0.2,1.7c0.9,5.7,6.5,9,12,9c6.2,0,8.1-2.9,8.1-5.5
		c0-2.7-0.9-4.8-6.7-8.7l-4.2-2.8c-8.1-5.6-10.3-10-10.3-16.1c0.1-7.6,6.7-14,17.7-14c3.1,0,5.2,0.2,8.3,0.8
		c1.1,0.2,2.3,0.5,3.4,0.8c0.7,0.2,0.8,0.4,0.8,1c-0.1,2.4-0.2,3.6-0.2,9.6c0,1.1-0.2,1.6-0.8,1.6c-0.4,0-0.8-0.2-0.9-1.3
		c-0.1-0.8-0.3-2.2-1.1-3.6c-1.4-2.4-4.9-4.7-9.5-4.7c-5.7,0-7.5,3.2-7.5,6c0,2.9,1.4,4.9,5.2,7.2l3.9,2.4
		c9.8,6.2,12.5,9.9,12.5,16.5c0,5.2-2.4,9.8-7.6,12.7c-4,2.3-8.7,2.7-12.3,2.7C173.8,424.5,170.3,423.7,167.7,422.6"/>
	<path clip-path="url(#SVGID_2_)" fill="#293161" d="M245.4,393.8c0.2,0,0.5,0,0.5-0.4V392c0-10.3,0-11.1-0.2-13.2
		c-0.2-1.7-0.7-2.9-3-3.3c-0.5-0.1-1.5-0.2-2.4-0.2c-0.9,0-1.3-0.5-1.3-0.8c0-0.5,0.3-0.8,1.4-0.8c4,0,10.6,0.2,11,0.2
		c0.3,0,8.8-0.2,11.8-0.2c1.2,0,1.4,0.3,1.4,0.8c0,0.4-0.2,0.8-1.1,0.8c-1.3,0.2-1.4,0.2-2.1,0.3c-1.7,0.2-2.3,1.2-2.5,3.3
		c-0.2,2.1-0.2,3.6-0.2,13.9v11.5c0,6.4,0.1,11.1,0.4,13.8c0.2,2.3,0.8,3.3,2.9,3.6c0.9,0.2,2.2,0.2,2.8,0.2
		c0.9,0.1,1.3,0.4,1.3,0.8c0,0.5-0.7,0.7-1.5,0.7c-4.6,0-12.2-0.2-13.2-0.2c-1.1,0-6.5,0.2-10,0.2c-1.3,0-1.4-0.4-1.4-0.8
		c0-0.3,0.4-0.8,1.2-0.8c0.8-0.1,1.4-0.1,2-0.2c1.7-0.3,2.1-1.5,2.4-3.7c0.3-2.7,0.4-6.5,0.4-12.9v-5c0-0.3-0.2-0.5-0.5-0.5h-20.1
		c-0.2,0-0.5,0.1-0.5,0.5v7c0,6.3,0.1,8.4,0.4,11.1c0.2,2,1.1,3.3,3.1,3.5c1,0.2,2.1,0.2,2.6,0.3c0.9,0.1,1.3,0.4,1.3,0.8
		c0,0.3-0.2,0.7-1.3,0.7c-3.8,0-12.8-0.2-13.1-0.2c-0.3,0-8.3,0.2-10.3,0.2c-0.8,0-1.4-0.2-1.4-0.7c0-0.5,0.2-0.8,1.1-0.8
		c0.8-0.1,1.1-0.1,2-0.2c1.7-0.2,2.4-1.9,2.5-4c0.3-2.8,0.4-7.1,0.4-13.4v-11.3c0-10.3-0.1-11.6-0.2-13.8c-0.2-2.2-0.7-3.4-3.3-3.8
		c-1-0.2-1.2-0.2-2.1-0.2c-1.1-0.1-1.1-0.6-1.1-0.8c0-0.5,0.7-0.7,1.4-0.7c4,0,10.1,0.2,11.6,0.2c2.8,0,8.1-0.2,11-0.2
		c1.3,0,1.4,0.4,1.4,0.8c0,0.3-0.3,0.6-1.2,0.7c-0.9,0.1-1.5,0.2-2.1,0.3c-2,0.4-2.3,2-2.4,3.7c-0.2,2.1-0.2,4.9-0.2,12.7v1.4
		c0,0.4,0.2,0.4,0.5,0.4H245.4z"/>
	<path clip-path="url(#SVGID_2_)" fill="#293161" d="M279.4,392.9c0-10.3,0-12-0.2-14.1c-0.2-1.7-0.6-3-2.3-3.2
		c-0.5-0.2-1.2-0.2-2.1-0.3c-0.9-0.1-1.3-0.3-1.3-0.8c0-0.4,0.2-0.8,1.5-0.8c2.7,0,10,0.2,10.2,0.2c0.4,0,9-0.2,11.5-0.2
		c1.2,0,1.4,0.3,1.4,0.8c0,0.5-0.5,0.7-1.4,0.8c-0.7,0.1-0.8,0.1-1.5,0.2c-1.8,0.4-2.4,1.1-2.7,3.3c-0.2,2.1-0.2,3.7-0.2,14v11.5
		c0,5,0.1,11.2,0.4,14.1c0.2,1.7,0.6,2.8,2.7,3.3c0.9,0.2,2.1,0.2,2.8,0.3c1.1,0,1.4,0.5,1.4,0.8c0,0.3-0.3,0.7-1.4,0.7
		c-4.7,0-12.5-0.2-12.9-0.2c-0.2,0-8.1,0.2-10.2,0.2c-1.1,0-1.6-0.2-1.6-0.8c0-0.4,0.4-0.8,1.1-0.8c0.6-0.1,1.3-0.1,2.2-0.2
		c1.4-0.3,2.1-1.7,2.2-3.6c0.4-2.7,0.5-7.3,0.5-13.8V392.9z"/>
	<path clip-path="url(#SVGID_2_)" fill="#293161" d="M311.7,376.2c0.1-2.2,0.3-3.3,1.3-3.3c0.4,0,0.7,0,2.6,1.4
		c3.3,2.6,13.8,11.5,22.2,19c7.5,6.6,11.1,9.6,13.1,11.4l-0.4-23.2c-0.2-3.6-0.6-5.4-3.6-5.8c-0.8-0.2-1.7-0.2-2.7-0.3
		c-0.9-0.1-1.2-0.5-1.2-0.8c0-0.5,0.6-0.8,1.3-0.8c2.5,0,7.2,0.2,10.3,0.2c1.7,0,5.2-0.2,8-0.2c1.1,0,1.4,0.3,1.4,0.7
		c0,0.3-0.2,0.8-1.1,0.8c-0.8,0.1-1.1,0.1-1.5,0.2c-2.3,0.3-3,1.3-3.3,5.5c-0.6,12.4-0.8,25.8-0.9,39c0,3.8-0.5,4.5-1.4,4.5
		c-1.1,0-3.5-1.7-8.9-6.1c-4.7-4-10.1-8.6-13.4-11.5c-3.6-3.3-9.5-8.3-15.3-13.6l0.7,21.3c0.2,4.6,0.3,6.5,2.4,7
		c1.3,0.3,2.1,0.4,3.4,0.5c1.1,0.2,1.4,0.4,1.4,0.8c0,0.5-0.5,0.8-1.7,0.8c-1.9,0-4-0.2-8.7-0.2c-1.9,0-7.4,0.2-9.7,0.2
		c-1.1,0-1.5-0.2-1.5-0.8c0-0.4,0.3-0.7,1.2-0.8c0.7-0.1,1.1-0.1,1.9-0.2c2.8-0.4,3.4-1.9,3.6-8C311.4,400.3,311.4,385,311.7,376.2"
		/>
	<path clip-path="url(#SVGID_2_)" fill="#293161" d="M376.3,392.9c0-10.9-0.1-12.2-0.2-14.3c-0.2-1.7-0.8-2.7-2.4-3
		c-0.6-0.2-1.4-0.2-2.1-0.2c-1-0.1-1.1-0.5-1.1-0.8c0-0.4,0.4-0.7,1.4-0.7c4.1,0,7.3,0.2,10.2,0.2c1.2,0,18.7-0.1,19.8-0.1
		c1.3,0,2.7-0.1,3.9-0.3c0.5-0.2,0.8-0.2,1.1-0.2c0.4,0,0.5,0.3,0.5,0.7c-0.2,0.8-0.4,1.7-0.5,3.2c-0.1,1.7-0.2,3-0.4,7.1
		c0,0.5-0.3,1.1-0.8,1.1c-0.4,0-0.7-0.3-0.8-0.9c-0.2-0.9-0.2-1.4-0.4-2.4c-0.4-1.5-1.2-2.4-4.5-2.7c-2.5-0.2-8.1-0.3-10.2-0.3
		c-0.4,0-0.5,0.2-0.5,0.7v13.9c0,0.5,0.1,0.6,0.5,0.6c2.1,0,6.8,0,9.4-0.1c3.7-0.2,4.6-0.4,5.5-1.7c0.3-0.6,0.6-0.8,0.9-0.8
		c0.5,0,0.5,0.5,0.5,0.8c0,0.8-0.5,3.6-0.5,6.1c-0.1,1.4-0.2,4.9-0.2,5.7c0,0.9-0.2,1.1-0.7,1.1c-0.4,0-0.7-0.3-0.8-1.1
		c-0.1-0.4-0.1-0.8-0.2-1.3c-0.4-2.1-1.1-3.3-4.7-3.5c-2.1-0.2-7.3-0.2-9.4-0.2c-0.4,0-0.5,0.2-0.5,0.5v4.8c0,2.2-0.1,5.3,0,8
		c0.1,4.6,0.9,5.7,8.7,5.7c1.7,0,4.4-0.1,6.3-0.8c1.9-0.8,2.7-2.4,3.3-5.4c0.2-0.8,0.5-1.1,0.9-1.1c0.5,0,0.6,0.5,0.6,1.4
		c0,2.9-0.7,8.2-1,9.5c-0.5,1.7-1.1,1.7-3.6,1.7c-10.2,0-15-0.4-22.3-0.4c-3.2,0-6.5,0.2-10.3,0.2c-1.3,0-1.6-0.4-1.6-0.8
		c0-0.3,0.2-0.7,1.4-0.7c0.7-0.1,1.2-0.1,2-0.2c2.2-0.4,2.4-3,2.7-7.6c0-2.5,0.1-6.2,0.1-9.8V392.9z"/>
	<path clip-path="url(#SVGID_2_)" fill="#4875B8" d="M427.4,416.4c-7.4-6.6-9.2-15.3-9.2-22.5c0-5.1,1.7-14,8.5-20.7
		c4.6-4.6,11.5-8.1,23.2-8.1c3,0,7.3,0.2,11,0.9c2.9,0.5,5.3,1,7.7,1.1c0.8,0.1,1,0.4,1,0.8c0,0.6-0.2,1.5-0.4,4.3
		c-0.2,2.5-0.2,6.7-0.2,7.8c-0.1,1.1-0.2,1.6-0.7,1.6c-0.5,0-0.6-0.5-0.6-1.6c0-3-1.2-6.1-3.2-7.7c-2.7-2.3-8.5-4.3-15.2-4.3
		c-10.1,0-14.8,3-17.5,5.5c-5.5,5.3-6.8,12.1-6.8,19.8c0,14.5,11.2,27.8,27.4,27.8c5.7,0,10.2-0.7,13.2-3.8c1.6-1.7,2.6-5,2.8-6.4
		c0.2-0.8,0.3-1.1,0.8-1.1c0.4,0,0.5,0.5,0.5,1.1c0,0.5-0.9,7.1-1.7,9.7c-0.5,1.4-0.6,1.6-2,2.2c-3,1.2-8.8,1.7-13.7,1.7
		C441.1,424.6,433.4,421.8,427.4,416.4"/>
	<path clip-path="url(#SVGID_2_)" fill="#4875B8" d="M504.4,373.8c15,0,26.4,9.2,26.4,24.2c0,14.4-10.7,26.4-26.8,26.4
		c-18.3,0-26.1-13.8-26.1-25.4C477.9,388.6,485.9,373.8,504.4,373.8 M505.9,421.7c6,0,18.1-3.2,18.1-21.9c0-15.5-9.4-23.6-20-23.6
		c-11.2,0-19.2,7-19.2,21C484.8,412.3,493.8,421.7,505.9,421.7"/>
	<path clip-path="url(#SVGID_2_)" fill="#4875B8" d="M555.7,376c0.8-2.1,1.1-2.5,1.6-2.5c0.7,0,0.9,0.9,1.6,2.4
		c1.2,2.7,11.9,29.4,16,39.2c2.4,5.8,4.3,6.6,5.7,7.1c1,0.3,2,0.4,2.7,0.4c0.4,0,0.8,0.2,0.8,0.5c0,0.4-0.8,0.5-1.5,0.5
		c-1,0-5.9,0-10.6-0.2c-1.3-0.1-2.4-0.1-2.4-0.5c0-0.3,0.2-0.3,0.5-0.5c0.4-0.2,1.1-0.7,0.6-1.7l-6-14.8c-0.2-0.3-0.2-0.4-0.6-0.4
		h-15.4c-0.3,0-0.5,0.2-0.7,0.5l-3.8,10.3c-0.6,1.6-1,3.2-1,4.3c0,1.3,1.1,1.7,2.3,1.7h0.6c0.5,0,0.7,0.2,0.7,0.5
		c0,0.4-0.4,0.5-1,0.5c-1.6,0-5.2-0.2-6-0.2c-0.7,0-4,0.2-6.8,0.2c-0.8,0-1.3-0.2-1.3-0.5c0-0.3,0.3-0.5,0.6-0.5
		c0.5,0,1.4-0.1,2-0.2c3-0.4,4.3-2.7,5.6-5.9L555.7,376z M563.1,402.9c0.3,0,0.3-0.2,0.2-0.5l-6.6-17.7c-0.4-1-0.8-1-1.1,0
		l-6.2,17.7c-0.1,0.3,0,0.5,0.2,0.5H563.1z"/>
	<path clip-path="url(#SVGID_2_)" fill="#4875B8" d="M588,422.6c-0.9-0.5-1-0.7-1-2.4c0-3.2,0.3-5.8,0.4-6.8c0-0.7,0.2-1.1,0.5-1.1
		c0.4,0,0.6,0.2,0.6,0.8c0,0.5,0,1.4,0.2,2.4c1.1,4.7,6.1,6.4,10.6,6.4c6.6,0,10-3.7,10-8.6c0-4.6-2.5-6.8-8.4-11.2l-3-2.3
		c-7.2-5.4-9.6-9.3-9.6-13.8c0-7.6,6-12.2,14.8-12.2c2.7,0,5.3,0.4,6.9,0.8c1.3,0.3,1.8,0.3,2.4,0.3c0.5,0,0.7,0.1,0.7,0.5
		c0,0.3-0.3,2.4-0.3,6.8c0,1-0.1,1.4-0.5,1.4c-0.5,0-0.5-0.3-0.6-0.8c-0.1-0.8-0.6-2.5-1-3.2c-0.5-0.8-2.7-3.2-8.7-3.2
		c-4.9,0-8.9,2.4-8.9,7c0,4.1,2.1,6.5,8.7,10.9l1.9,1.3c8.1,5.5,10.9,10,10.9,15.6c0,3.8-1.4,7.9-6.2,11c-2.8,1.8-7,2.3-10.6,2.3
		C594.6,424.4,590.7,423.9,588,422.6"/>
	<path clip-path="url(#SVGID_2_)" fill="#4875B8" d="M648,404.8c0,6.2,0,11.3,0.3,14c0.2,1.9,0.5,3.1,2.6,3.4c0.9,0.2,2.4,0.3,3,0.3
		c0.5,0,0.5,0.3,0.5,0.5c0,0.3-0.3,0.5-1.1,0.5c-3.6,0-7.9-0.2-8.3-0.2c-0.3,0-4.9,0.2-6.9,0.2c-0.8,0-1.1-0.2-1.1-0.5
		c0-0.2,0.2-0.5,0.5-0.5c0.6,0,1.4-0.2,2-0.3c1.4-0.3,1.7-1.6,2-3.5c0.3-2.7,0.3-7.7,0.3-14v-27.1l-9.6,0.2
		c-4.2,0.1-5.8,0.5-6.8,2.1c-0.8,1.1-0.8,1.6-1.1,2.1c-0.2,0.5-0.4,0.6-0.7,0.6c-0.2,0-0.5-0.2-0.5-0.5c0-0.7,1.4-6.5,1.4-7
		c0.2-0.4,0.5-1.2,0.7-1.2c0.5,0,1.1,0.5,3,0.8c1.9,0.2,4.5,0.3,5.2,0.3h25.2c2.2,0,3.7-0.2,4.8-0.3c1-0.2,1.6-0.3,1.9-0.3
		s0.3,0.4,0.3,0.8c0,2-0.2,6.6-0.2,7.4c0,0.5-0.3,0.8-0.6,0.8c-0.3,0-0.5-0.2-0.5-1.1l-0.1-0.7c-0.2-2-1.7-3.4-8.1-3.6l-8.4-0.2
		V404.8z"/>
	<path clip-path="url(#SVGID_2_)" fill="#5A5A5C" d="M101.3,454.3c0,8.6-5.2,13.1-11.6,13.1c-6.6,0-11.2-5.1-11.2-12.6
		c0-7.9,4.9-13.1,11.6-13.1C96.9,441.7,101.3,446.9,101.3,454.3 M82,454.7c0,5.3,2.9,10.1,7.9,10.1c5.1,0,8-4.7,8-10.3
		c0-4.9-2.6-10.1-7.9-10.1C84.7,444.4,82,449.3,82,454.7"/>
	<path clip-path="url(#SVGID_2_)" fill="#5A5A5C" d="M115.8,442.5c1.6-0.3,4-0.5,6.2-0.5c3.4,0,5.6,0.6,7.2,2c1.3,1.1,2,2.8,2,4.7
		c0,3.3-2.1,5.5-4.7,6.4v0.1c1.9,0.7,3.1,2.4,3.7,5c0.8,3.5,1.4,5.9,1.9,6.8h-3.3c-0.4-0.7-1-2.8-1.7-5.9c-0.7-3.4-2.1-4.7-5-4.8h-3
		V467h-3.2V442.5z M119,453.8h3.3c3.4,0,5.6-1.9,5.6-4.7c0-3.2-2.3-4.6-5.7-4.7c-1.6,0-2.7,0.1-3.2,0.3V453.8z"/>
	<polygon clip-path="url(#SVGID_2_)" fill="#5A5A5C" points="151.1,444.9 143.5,444.9 143.5,442.1 161.9,442.1 161.9,444.9 
		154.3,444.9 154.3,467 151.1,467 	"/>
	<polygon clip-path="url(#SVGID_2_)" fill="#5A5A5C" points="178.2,442.1 178.2,452.6 190.3,452.6 190.3,442.1 193.5,442.1 
		193.5,467 190.3,467 190.3,455.4 178.2,455.4 178.2,467 175,467 175,442.1 	"/>
	<path clip-path="url(#SVGID_2_)" fill="#5A5A5C" d="M230.7,454.3c0,8.6-5.2,13.1-11.6,13.1c-6.6,0-11.2-5.1-11.2-12.6
		c0-7.9,4.9-13.1,11.6-13.1C226.3,441.7,230.7,446.9,230.7,454.3 M211.4,454.7c0,5.3,2.9,10.1,7.9,10.1c5.1,0,8-4.7,8-10.3
		c0-4.9-2.6-10.1-7.9-10.1C214,444.4,211.4,449.3,211.4,454.7"/>
	<path clip-path="url(#SVGID_2_)" fill="#5A5A5C" d="M245.2,442.4c1.6-0.3,3.6-0.5,6.2-0.5c3.2,0,5.5,0.7,7,2.1
		c1.4,1.2,2.2,3,2.2,5.2c0,2.3-0.7,4-1.9,5.3c-1.7,1.8-4.5,2.7-7.6,2.7c-1,0-1.8,0-2.6-0.2v10h-3.2V442.4z M248.4,454.4
		c0.7,0.2,1.6,0.3,2.7,0.3c3.9,0,6.2-1.9,6.2-5.3c0-3.3-2.3-4.9-5.9-4.9c-1.4,0-2.5,0.1-3,0.3V454.4z"/>
	<path clip-path="url(#SVGID_2_)" fill="#5A5A5C" d="M276.1,459.2l-2.6,7.8h-3.3l8.5-24.9h3.9L291,467h-3.4l-2.7-7.8H276.1z
		 M284.3,456.7l-2.4-7.2c-0.6-1.6-0.9-3.1-1.3-4.5h-0.1c-0.4,1.5-0.8,3-1.3,4.5l-2.4,7.2H284.3z"/>
	<polygon clip-path="url(#SVGID_2_)" fill="#5A5A5C" points="317.9,455.4 308.2,455.4 308.2,464.3 319,464.3 319,467 305,467 
		305,442.1 318.4,442.1 318.4,444.8 308.2,444.8 308.2,452.7 317.9,452.7 	"/>
	<path clip-path="url(#SVGID_2_)" fill="#5A5A5C" d="M333.5,442.5c2-0.3,4.3-0.5,6.8-0.5c4.6,0,7.9,1.1,10.1,3.1
		c2.2,2,3.5,4.9,3.5,8.9c0,4.1-1.3,7.4-3.6,9.7c-2.3,2.3-6.2,3.6-11,3.6c-2.3,0-4.2-0.1-5.8-0.3V442.5z M336.7,464.5
		c0.8,0.1,2,0.2,3.2,0.2c6.9,0,10.6-3.8,10.6-10.6c0-5.9-3.3-9.6-10.1-9.6c-1.7,0-2.9,0.1-3.8,0.3V464.5z"/>
	<rect x="368.4" y="442.1" clip-path="url(#SVGID_2_)" fill="#5A5A5C" width="3.2" height="24.9"/>
	<path clip-path="url(#SVGID_2_)" fill="#5A5A5C" d="M405,466.2c-1.2,0.6-3.5,1.2-6.6,1.2c-7,0-12.3-4.4-12.3-12.6
		c0-7.8,5.3-13.1,13-13.1c3.1,0,5.1,0.7,5.9,1.1l-0.8,2.6c-1.2-0.6-3-1-5-1c-5.8,0-9.7,3.7-9.7,10.3c0,6.1,3.5,10,9.6,10
		c2,0,4-0.4,5.2-1L405,466.2z"/>
	<path clip-path="url(#SVGID_2_)" fill="#5A5A5C" d="M456.4,465.9c-1.4,0.5-4.3,1.4-7.6,1.4c-3.8,0-6.9-1-9.3-3.3
		c-2.1-2.1-3.5-5.4-3.5-9.3c0-7.4,5.1-12.8,13.5-12.8c2.9,0,5.1,0.6,6.2,1.1l-0.8,2.6c-1.3-0.6-3-1.1-5.5-1.1c-6.1,0-10,3.8-10,10
		c0,6.3,3.8,10,9.6,10c2.1,0,3.5-0.3,4.3-0.7v-7.4h-5.1V454h8.2V465.9z"/>
	<path clip-path="url(#SVGID_2_)" fill="#5A5A5C" d="M471.7,442.5c1.6-0.3,3.9-0.5,6.2-0.5c3.4,0,5.6,0.6,7.2,2c1.3,1.1,2,2.8,2,4.7
		c0,3.3-2.1,5.5-4.7,6.4v0.1c1.9,0.7,3.1,2.4,3.7,5c0.8,3.5,1.4,5.9,1.9,6.8h-3.3c-0.4-0.7-1-2.8-1.7-5.9c-0.7-3.4-2.1-4.7-5-4.8h-3
		V467h-3.2V442.5z M474.9,453.8h3.3c3.4,0,5.6-1.9,5.6-4.7c0-3.2-2.3-4.6-5.7-4.7c-1.6,0-2.7,0.1-3.2,0.3V453.8z"/>
	<path clip-path="url(#SVGID_2_)" fill="#5A5A5C" d="M523.2,454.3c0,8.6-5.2,13.1-11.6,13.1c-6.6,0-11.2-5.1-11.2-12.6
		c0-7.9,4.9-13.1,11.6-13.1C518.8,441.7,523.2,446.9,523.2,454.3 M503.9,454.7c0,5.3,2.9,10.1,7.9,10.1c5.1,0,8-4.7,8-10.3
		c0-4.9-2.6-10.1-7.9-10.1C506.6,444.4,503.9,449.3,503.9,454.7"/>
	<path clip-path="url(#SVGID_2_)" fill="#5A5A5C" d="M540.9,442.1v14.7c0,5.6,2.5,7.9,5.8,7.9c3.7,0,6.1-2.4,6.1-7.9v-14.7h3.2v14.5
		c0,7.6-4,10.8-9.4,10.8c-5.1,0-8.9-2.9-8.9-10.6v-14.7H540.9z"/>
	<path clip-path="url(#SVGID_2_)" fill="#5A5A5C" d="M572,442.4c1.5-0.3,3.6-0.5,6.2-0.5c3.2,0,5.5,0.7,7,2.1c1.4,1.2,2.2,3,2.2,5.2
		c0,2.3-0.7,4-1.9,5.3c-1.7,1.8-4.5,2.7-7.6,2.7c-1,0-1.8,0-2.6-0.2v10H572V442.4z M575.2,454.4c0.7,0.2,1.6,0.3,2.7,0.3
		c3.9,0,6.2-1.9,6.2-5.3c0-3.3-2.3-4.9-5.9-4.9c-1.4,0-2.5,0.1-3,0.3V454.4z"/>
	<path clip-path="url(#SVGID_2_)" fill="#293161" d="M378.3,242l-4.8-4.9l-4.7-5c-6.2-6.7-12-13.9-17.6-21c-1.1-1.4-2.1-2.8-3.2-4.1
		c-2.3,0.5-5,1.1-8,1.8c-4.8,1-10.4,2.1-16.3,3.3c-3,0.6-6,1.2-9,2c-0.8,0.2-1.5,0.4-2.2,0.6c-0.7,0.2-1.4,0.4-2,0.6
		c0.5,0.3,1.1,0.6,1.7,1c3,1.8,6.1,4.4,8,7.9c0.9,1.7,1.6,3.5,1.8,5.4c0.1,0.9,0.2,1.8,0.2,2.6l0,0.6l0,0.2c0,0.2,0,0.1,0,0.2l0,0.3
		l-0.1,1.1c-0.1,1.4-0.2,2.8-0.4,4.1c-0.2,1.4-0.4,2.7-0.6,4c-0.4,2.5-1,4.7-1.2,6.5c-0.1,0.5-0.1,0.9-0.1,1.3c0,0.4,0,0.8,0.1,1.2
		c0,0.8,0.2,1.5,0.3,2.2c0.3,1.4,0.8,2.4,1,3.1c0.3,0.7,0.4,1.1,0.4,1.1s-0.3-0.3-0.8-0.9c-0.5-0.6-1.4-1.4-2.1-2.7
		c-0.4-0.6-0.9-1.4-1.2-2.3c-0.2-0.4-0.3-0.9-0.5-1.4c-0.1-0.5-0.2-1-0.2-1.6c-0.3-2.2-0.3-4.5-0.4-6.9c-0.1-1.2-0.1-2.4-0.2-3.7
		c-0.1-1.3-0.2-2.7-0.3-4.1l-0.1-1.1l0-0.3c0,0,0-0.2,0,0l0-0.1l-0.1-0.4c-0.1-0.6-0.2-1.1-0.4-1.7c-0.3-1.1-0.8-2.1-1.4-3
		c-1.3-1.9-3.3-3.4-5.8-4.8c-1.3-0.7-2.6-1.3-4.3-2.3c-0.4-0.3-0.9-0.5-1.4-0.9c-0.3-0.2-0.6-0.5-0.9-0.8c-0.4-0.4-0.7-0.7-1-1.4
		c-0.3-0.5-0.7-1.5-0.7-2.4c0-0.5,0-0.9,0.1-1.4c0.1-0.4,0.2-0.7,0.4-1.1c0.2-0.4,0.3-0.6,0.5-0.8c0.2-0.2,0.3-0.4,0.5-0.6
		c0.3-0.3,0.6-0.7,1-0.9l0.5-0.4l0.3-0.2l0.2-0.1l0.4-0.2c0.5-0.3,1-0.6,1.6-0.8c1-0.4,1.8-0.7,2.7-1c0.9-0.3,1.7-0.5,2.6-0.7
		c0.9-0.2,1.7-0.4,2.5-0.5c0.8-0.2,1.6-0.3,2.5-0.5c0.8-0.1,1.6-0.2,2.4-0.4c1.6-0.3,3.2-0.4,4.7-0.6c6.2-0.6,12-0.9,16.9-0.9
		c2.4,0,4.5,0.1,6.5,0.1c-3.6-4.9-7-9.8-10.2-14.7c-1.1-1.7-2.2-3.3-3.2-5c-3,0.9-6.2,2-9.7,3.2c-3.9,1.4-8.2,3-12.5,4.8
		c-4.3,1.8-8.8,4-13,6.6c-1.1,0.6-2,1.4-3.1,2.1c-0.9,0.8-2,1.5-2.8,2.3c-1.8,1.6-3.3,3.4-4.3,5.3c-0.2,0.5-0.5,0.9-0.6,1.4
		c-0.1,0.5-0.3,0.9-0.4,1.4c0,0.5-0.1,1-0.1,1.4c0,0.5,0.1,1,0.1,1.5c0,0.5,0.2,1,0.3,1.5c0.2,0.5,0.2,1,0.5,1.5l0.7,1.5
		c0.3,0.5,0.7,1.2,1,1.8c2.7,4.8,5.6,9.6,8.4,14.4c2.8,4.8,5.5,9.6,8,14.3c2.5,4.7,4.8,9.3,6.8,13.8c0.1,0.3,0.3,0.6,0.4,0.9
		c5.7,0.7,11.5,1.2,17.3,1.2c21,0,40.9-4.9,58.5-13.6c-0.1-0.1-0.1-0.1-0.2-0.2C384.7,248.4,381.5,245.3,378.3,242"/>
	<path clip-path="url(#SVGID_2_)" fill="#4875B8" d="M229.9,96.5c5.4,0.6,10.8,0.9,16.3,0.7c5.4-0.1,10.9-0.7,16-1.7
		c1.3-0.3,2.5-0.5,3.8-0.8c1.3-0.3,2.6-0.7,3.9-1c2.7-0.7,5.4-1.4,8-2.1c2.7-0.6,5.4-1,7.9-1.5c1.3-0.3,2.6-0.3,3.9-0.4
		c1.3-0.1,2.6-0.2,3.8-0.3c0.7-0.1,1.4-0.1,2.1-0.1c0.9-1,2.2-2.1,3.9-3.3c2.2-1.6,5.1-3.4,8.7-4.8c0.9-0.4,1.8-0.8,2.8-1.1
		c1-0.3,2-0.6,3.1-0.9c0.5-0.2,1.1-0.3,1.6-0.5c0.5-0.1,1.1-0.2,1.7-0.3c1.1-0.2,2.3-0.4,3.5-0.6c1.2-0.2,2.4-0.2,3.6-0.3
		c1.2-0.1,2.5-0.2,3.8-0.2c1.3,0.1,2.6,0.1,3.9,0.2c1.3,0.1,2.7,0,4,0.3c1.4,0.2,2.7,0.4,4.1,0.6c1.4,0.2,2.8,0.4,4.2,0.8
		c1.4,0.3,2.8,0.7,4.2,1c1.4,0.4,2.9,0.7,4.3,1.2c2.8,1,5.7,1.9,8.5,3c2.8,1.2,5.6,2.5,8.4,3.8c5.5,2.7,10.9,5.5,16.4,8.4
		c5.4,2.9,10.8,5.8,16.1,8.8c5.3,2.9,10.4,5.8,15.4,8.6c2.5,1.3,5,2.7,7.4,3.9c2.4,1.3,4.8,2.4,7.1,3.5c2.3,1.1,4.7,2,6.9,2.9
		c2.3,0.8,4.4,1.8,6.6,2.4c2.1,0.7,4.2,1.3,6.2,1.8c2,0.5,3.9,1,5.7,1.4c1.5,0.3,3,0.6,4.4,0.9C461.1,58.2,402.2,0,329.6,0
		C276.1,0,230,31.7,209,77.4c1.6,0.3,3.3,0.7,5.1,1.1c0.7,0.1,1.3,0.3,2,0.4c0.7,0.1,1.4,0.2,2.1,0.3c1.4,0.2,2.9,0.4,4.4,0.6
		c0.8,0.1,1.5,0.3,2.3,0.3c0.8,0,1.6,0.1,2.4,0.1c1.6,0.1,3.2,0.2,4.8,0.3c1.6,0.1,3.3-0.1,5-0.1c0.8,0,1.7,0,2.6-0.1
		c0.9,0,1.7,0,2.6-0.1c1.7-0.2,3.5-0.4,5.2-0.5c0.9-0.1,1.8-0.1,2.6-0.3l2.6-0.4c1.7-0.3,3.5-0.5,5.2-0.8c1.7-0.3,3.6-0.7,5.3-1.1
		c1.8-0.4,3.5-0.7,5.3-1.1c1.7-0.3,3.4-0.7,5.1-1c1.7-0.3,3.4-0.7,5.1-0.9c1.7-0.2,3.3-0.4,4.9-0.6c3.2-0.4,6.2-0.6,9-0.7
		c2.8-0.2,5.4,0,7.6,0c2.3,0.1,4.3,0.3,5.9,0.5c1.6,0.2,2.9,0.4,3.7,0.6c0.9,0.2,1.3,0.3,1.3,0.3s-0.5,0-1.3,0.1
		c-0.9,0.1-2.1,0.3-3.7,0.5c-1.6,0.2-3.5,0.6-5.7,1c-1.1,0.2-2.2,0.5-3.5,0.7c-1.2,0.3-2.5,0.5-3.8,0.8c-2.7,0.6-5.5,1.2-8.5,2
		c-1.5,0.4-3,0.8-4.6,1.2c-1.6,0.4-3.2,0.9-4.8,1.4c-0.8,0.2-1.6,0.5-2.5,0.7c-0.9,0.2-1.7,0.5-2.6,0.7c-1.7,0.5-3.4,0.9-5.2,1.4
		c-1.8,0.4-3.5,1-5.3,1.3c-1.9,0.3-3.8,0.7-5.6,1l-2.8,0.5c-0.9,0.1-1.9,0.2-2.8,0.2c-1.9,0.2-3.8,0.3-5.7,0.4
		c-1.9,0.2-3.8-0.1-5.6-0.1c-1.8-0.1-3.7-0.1-5.4-0.4c-1.8-0.3-3.5-0.5-5.2-0.9c-0.8-0.1-1.7-0.3-2.5-0.4c-0.8-0.1-1.6-0.4-2.4-0.6
		c-1.6-0.5-3.1-0.9-4.6-1.4c-0.7-0.2-1.4-0.5-2.1-0.7c-0.7-0.2-1.4-0.5-2-0.8c-1.9-0.8-3.7-1.6-5.3-2.3c-1.5,3.5-2.8,7.1-4,10.7
		c3.4,0.9,7,1.8,10.7,2.5C219.3,95,224.6,95.9,229.9,96.5 M339.3,74.3c0.3-0.3,0.6-0.6,1-1c0.4-0.4,0.9-0.8,1.6-1.2
		c1.2-0.9,2.8-1.8,4.8-2.6c1-0.3,2.1-0.7,3.2-1c1.2-0.2,2.4-0.6,3.7-0.7c2.6-0.3,5.5-0.3,8.5,0.1c1.5,0.2,3,0.4,4.5,0.8
		c1.5,0.4,3.1,0.7,4.6,1.3c1.5,0.6,3.1,1,4.6,1.8c1.5,0.7,3,1.4,4.5,2.2c1.5,0.8,2.9,1.7,4.4,2.5l1.1,0.7l0.6,0.4l0.5,0.3l2,1.3
		c2.7,1.8,5.4,3.7,8,5.7c2.6,1.9,5.1,3.9,7.4,5.9c4.7,3.9,8.8,7.9,12.4,10.9c1.8,1.5,3.5,2.7,5.2,3.6c0.8,0.5,1.6,0.9,2.4,1.2
		c0.8,0.4,1.5,0.7,2.1,0.9c1.3,0.5,2.4,0.9,3.1,1.1c0.7,0.3,1.1,0.4,1.1,0.4s-0.4,0-1.2,0.1c-0.8,0-1.9,0.1-3.4,0
		c-0.7,0-1.6-0.1-2.4-0.2c-0.9-0.1-1.8-0.3-2.9-0.6c-2-0.5-4.3-1.3-6.6-2.6c-2.3-1.2-4.6-2.6-6.9-4.2c-2.4-1.6-4.8-3.2-7.3-4.9
		c-2.5-1.7-5.1-3.5-7.7-5.2c-2.6-1.8-5.3-3.6-8-5.4l-2-1.4l-0.5-0.3l-0.5-0.3l-1-0.6c-1.3-0.8-2.6-1.7-3.9-2.5
		c-1.3-0.7-2.6-1.4-3.9-2.2c-1.3-0.7-2.6-1.2-3.9-1.9c-1.3-0.7-2.6-1.1-3.9-1.6c-1.3-0.6-2.6-0.9-3.8-1.2c-1.2-0.4-2.5-0.6-3.7-0.9
		c-1.2-0.3-2.4-0.3-3.5-0.5c-1.1-0.2-2.2-0.1-3.3-0.1c-1,0-2,0.1-3,0.2c-1.8,0.3-3.5,0.6-4.8,1c-1.3,0.4-2.4,0.8-3,1.2
		c-0.7,0.3-1,0.5-1,0.5S338.7,74.9,339.3,74.3 M309.6,22.1l-0.5-0.1l-0.3,0l-0.1,0l-1.2-0.1l-1.2-0.1l-0.8,0.1c-0.3,0-0.5,0-0.8,0.1
		l-0.9,0.2c-0.6,0.1-1.2,0.4-1.8,0.5c-0.6,0.2-1.2,0.6-1.7,0.8c-0.5,0.4-1.1,0.7-1.6,1.1c-2.1,1.6-4,3.9-5.5,6.4
		c-1.5,2.5-2.7,5.3-3.6,8.1c-0.9,2.8-1.5,5.6-1.9,8.3c-0.4,2.7-0.5,5.3-0.4,7.6c0.2,2.3,0.5,4.5,1.2,6.2c0.7,1.7,1.7,3,2.8,3.8
		c1.1,0.7,2.2,1.1,3,1.2c0.8,0.1,1.2,0.2,1.2,0.2s-0.4,0.1-1.2,0.3c-0.8,0.2-2.1,0.3-3.7-0.2c-1.6-0.5-3.4-1.8-4.7-3.7
		c-1.4-1.9-2.5-4.3-3.2-6.9c-1.4-5.4-1.5-11.9-0.1-18.6c0.8-3.4,1.9-6.8,3.7-10.1c1.8-3.3,4.2-6.5,7.5-9c0.8-0.6,1.7-1.2,2.6-1.7
		c1-0.4,1.9-1,2.9-1.3c1-0.3,2-0.7,3.1-0.8l1.6-0.2c0.5-0.1,1.1-0.1,1.7-0.1l1.7,0l1.2,0.1l1.2,0.2l0.3,0l0,0l0.1,0l0.2,0l0.3,0.1
		l0.7,0.2c0.9,0.2,1.8,0.4,2.6,0.7c0.9,0.2,1.7,0.6,2.6,0.9c3.4,1.4,6.6,3.7,8.6,6.8c1,1.5,1.7,3.2,2.1,4.8c0.4,1.6,0.5,3.2,0.4,4.6
		c-0.1,2.9-0.8,5.3-1.6,7.4c-0.8,2.1-1.7,3.7-2.4,5c-0.8,1.3-1.5,2.3-2,2.9c-0.5,0.6-0.8,1-0.8,1s0.6-1.6,1.3-4.5
		c0.4-1.4,0.7-3.2,0.9-5.2c0.2-2,0.3-4.2-0.1-6.4c-0.4-2.2-1.2-4.3-2.7-6c-1.5-1.6-3.6-2.9-6.2-3.7c-0.6-0.2-1.3-0.4-2-0.5
		C311.1,22.3,310.4,22.2,309.6,22.1"/>
	<path clip-path="url(#SVGID_2_)" fill="#293161" d="M396.9,229.8c-3-3.5-5.9-7.7-8.2-12.4c-2.4-4.7-4.4-9.9-6.3-15.1
		c-1.9-5.3-3.7-10.6-5.9-15.8c-2.2-5.2-4.8-10.2-7.9-15c-3-4.8-6.6-9.3-10.3-13.4c-1.8-2.1-3.9-4.2-5.8-6.2c-1-1.1-2.1-2.2-3-3.4
		c-1-1.1-1.8-2.4-2.7-3.6c-3.4-4.9-5.6-10.3-7-15.5c-1.4-5.2-1.9-10.3-1.8-14.9c0-4.6,0.6-8.8,1.4-12.4c0.7-3.6,1.7-6.7,2.5-9.2
		c1.2-3.4,2.3-5.7,2.9-6.8c-0.6-0.2-1.2-0.4-1.8-0.6c-1.3-0.5-2.6-0.7-3.8-1c-1.3-0.3-2.5-0.6-3.8-0.8c-2.5-0.5-4.9-0.6-7.3-1
		c-1.2-0.1-2.3-0.1-3.5-0.2c-1.1,0-2.3-0.2-3.4-0.1c-2.2,0.2-4.3,0.1-6.3,0.5c-1,0.1-2,0.3-2.9,0.4c-0.9,0.2-1.8,0.5-2.7,0.7
		c-3.5,0.9-6.5,2.1-8.8,3.3c-1.3,0.7-2.5,1.4-3.5,2c0.1,0,0.3,0,0.4,0c1.2,0,2.5,0.1,3.6,0.1c1.2,0.1,2.4,0.3,3.5,0.5
		c1.1,0.2,2.3,0.3,3.4,0.6c2.2,0.6,4.3,1.1,6.1,2c0.9,0.4,1.9,0.7,2.7,1.2c0.8,0.5,1.6,1,2.4,1.4c3,2,5.3,4.2,6.8,6.3
		c1.6,2,2.4,3.9,2.9,5.1c0.3,0.6,0.4,1.1,0.5,1.5c0.1,0.3,0.1,0.5,0.1,0.5s-0.3-0.7-1-1.7c-0.3-0.6-0.9-1.2-1.4-1.9
		c-0.3-0.4-0.7-0.7-1-1.1c-0.4-0.4-0.7-0.8-1.2-1.2c-1.7-1.7-4.2-3.3-7.1-4.7c-0.8-0.3-1.5-0.6-2.3-0.9c-0.8-0.4-1.7-0.5-2.6-0.7
		c-1.7-0.6-3.7-0.8-5.6-1.1c-1-0.2-2-0.1-3.1-0.2c-1.1,0-2.1-0.1-3.2-0.1c-2.2,0.2-4.4,0.2-6.7,0.5c-1.2,0.2-2.3,0.4-3.5,0.6
		c-1.2,0.2-2.4,0.3-3.6,0.7c-2.4,0.7-4.9,1.1-7.3,1.8c-2.5,0.8-5,1.6-7.5,2.4c-1.3,0.4-2.7,0.8-4,1.3c-1.3,0.4-2.8,0.7-4.3,1.1
		c-5.8,1.3-11.6,2-17.5,2.2c-5.9,0.2-11.7-0.2-17.4-1c-5.7-0.8-11.2-1.9-16.4-3.3c-3.8-1-7.4-2.2-10.9-3.4
		c-3.1,11.2-4.7,22.9-4.7,35.1c0,64.8,46.4,118.7,107.8,130.3c-1.9-3.2-3.9-6.5-5.9-10c-2.8-4.5-5.6-9.1-8.5-13.8
		c-2.9-4.7-5.8-9.5-8.7-14.5c-0.4-0.6-0.7-1.2-1.1-1.9l-1.1-2.3c-0.4-0.7-0.6-1.6-0.8-2.5c-0.2-0.9-0.5-1.7-0.5-2.6
		c-0.1-0.9-0.2-1.8-0.1-2.7c0.1-0.9,0.2-1.8,0.3-2.7c0.2-0.9,0.5-1.7,0.8-2.6c0.3-0.9,0.7-1.6,1.1-2.4c1.7-3,3.9-5.4,6.3-7.3
		c1.1-1,2.4-1.8,3.6-2.7c1.2-0.7,2.4-1.6,3.7-2.2c4.9-2.7,9.9-4.5,14.6-6.1c4.7-1.6,9.2-2.7,13.4-3.6c3.2-0.7,6.2-1.3,9-1.7
		c-0.6-0.9-1.1-1.8-1.7-2.7c-2.1-3.5-4.2-7-6.1-10.5c-3.9-6.9-7.3-13.5-10.2-19.7c-3-6.2-5.5-11.9-7.6-17.1
		c-2.1-5.1-3.8-9.7-5.1-13.5c-1.3-3.8-2.2-6.8-2.8-8.8c-0.6-2.1-0.9-3.2-0.9-3.2s0.5,1,1.3,3c0.9,1.9,2.2,4.8,4,8.3
		c1.7,3.6,3.9,7.9,6.5,12.7c2.6,4.9,5.6,10.3,8.9,16.2c3.4,5.9,7.2,12.2,11.3,18.7c2.1,3.3,4.3,6.6,6.5,10c1.2,1.8,2.3,3.5,3.6,5.3
		c1.3-0.2,2.5-0.3,3.6-0.4c4.9-0.5,7.8-0.5,7.8-0.5s-2.7,0.8-7.5,2.1c-0.8,0.2-1.7,0.5-2.6,0.8c0.7,1,1.4,2,2.1,3
		c4.9,6.9,10.1,13.8,15.6,20.8c5.5,7,11.4,13.7,17.3,20.5c6,6.7,12.3,13.1,18.6,19.4c0.6,0.6,1.3,1.2,1.9,1.9
		c4.3-2.5,8.5-5.2,12.5-8.1c-0.6-0.5-1.2-0.9-1.8-1.4C403.1,236.1,399.9,233.3,396.9,229.8"/>
	<path clip-path="url(#SVGID_2_)" fill="#293161" d="M451.4,132.1c-2.1-0.2-4.3-0.7-6.7-1.1c-2.3-0.4-4.7-1.1-7.2-1.7
		c-1.2-0.3-2.4-0.8-3.7-1.2c-1.2-0.4-2.5-0.8-3.8-1.3c-5.1-1.8-10.3-4.1-15.5-6.6c-10.5-5-21.2-10.9-32-16.6
		c-5.4-2.9-10.8-5.7-16.1-8.5c-2.6-1.3-5.3-2.6-7.9-3.8c-2.6-1.2-5.3-2.1-7.9-3.2c-1.3-0.6-2.6-0.9-3.9-1.3
		c-0.6-0.2-1.3-0.4-1.9-0.6c-0.3,1.2-0.9,3.6-1.5,7.1c-0.4,2.5-0.8,5.6-1,9.2c-0.2,3.5-0.2,7.5,0.2,11.8c0.4,4.3,1.4,8.8,2.9,13.3
		c1.6,4.5,3.9,9,7.1,13.1c1.6,2,3.3,4,5.2,5.8c2.1,2.1,4.1,3.9,6.2,6.2c4.2,4.4,8,9.2,11.4,14.4c3.3,5.2,6.2,10.7,8.4,16.4
		c2.2,5.6,3.9,11.2,5.4,16.5c1.6,5.3,3,10.3,4.9,14.8c1.9,4.5,4,8.6,6.4,12.1c2.4,3.5,5,6.6,7.4,9.1c0.7,0.7,1.3,1.4,2,2
		c31.7-24.2,52.1-62.3,52.2-105.2c-1.5,0-3.1-0.1-4.8-0.2C455.5,132.7,453.5,132.4,451.4,132.1"/>
	<path clip-path="url(#SVGID_2_)" fill="#293161" d="M407.4,269.4c6.4,5.7,12.8,10.9,18.6,16c5.8,5.1,11.4,9.9,15.4,15
		c2,2.5,3.5,5.2,4.3,7.9c0.8,2.7,0.9,5.5,0.5,8.1c-0.8,5.2-2.6,9.7-4.1,13.3c-1.6,3.6-2.9,6.4-3.9,8.4c-0.9,1.9-1.5,2.9-1.5,2.9
		s0.6-0.9,1.8-2.7c1.2-1.8,2.9-4.4,4.9-7.9c1.9-3.5,4.4-7.8,5.7-13.5c0.6-2.8,0.9-6.1,0.2-9.4c-0.7-3.4-2.2-6.6-4.2-9.6
		c-2-3-4.4-5.8-6.9-8.5c-2.5-2.8-5.3-5.5-8.1-8.2c-5.7-5.4-11.7-11-17.8-16.9c-5.6-5.2-11.2-10.7-16.8-16.3
		c-2.3,1.3-4.7,2.6-7.2,3.8C394.6,257.9,401.1,263.8,407.4,269.4"/>
	<path clip-path="url(#SVGID_2_)" fill="#293161" d="M306.4,265.9c2.2,4.2,4.3,8.2,5.8,11.9c1.5,3.8,2.5,7.4,2.3,10.4
		c0,3.1-1.8,5.2-3.8,6.3c-2,1-4,1.4-5.3,1.6c-1.3,0.2-2,0.3-2,0.3s0.7,0.1,2,0.2c1.3,0.1,3.3,0.2,5.9-0.6c0.6-0.3,1.3-0.4,1.9-0.9
		c0.3-0.2,0.7-0.4,1-0.6c0.3-0.3,0.6-0.6,0.9-0.9c0.7-0.6,1-1.4,1.5-2.2c0.3-0.9,0.7-1.8,0.9-2.7c0.8-3.8,0.2-8-0.9-12.2
		c-1-4-2.6-8.1-4.4-12.3c-2.5-0.3-5-0.7-7.5-1.2C305.3,264,305.9,265,306.4,265.9"/>
	<path clip-path="url(#SVGID_2_)" fill="#4875B8" d="M199.6,90.4c-4.6-1.3-8.9-2.7-12.9-4c-7.9-2.7-14.5-5.3-19.1-7.2
		c-4.6-1.9-7.2-3.1-7.2-3.1s2.2,1.8,6.4,4.5c4.2,2.7,10.3,6.4,18.1,10.1c3.9,1.9,8.1,3.7,12.8,5.5c1.3,0.5,2.6,1,3.9,1.4
		c0.6-2.1,1.2-4.1,1.8-6.1C202.2,91.1,200.9,90.8,199.6,90.4"/>
	<path clip-path="url(#SVGID_2_)" fill="#293161" d="M410.1,241.5c1.3,0.9,2.5,1.7,3.7,2.4c2.2,1.4,4.1,2.3,5.3,3
		c1.2,0.6,1.9,1,1.9,1s-0.6-0.5-1.6-1.4c-0.5-0.4-1.2-1-2-1.6c-0.8-0.7-1.6-1.4-2.6-2.3c-1-0.8-2-1.8-3.1-2.9c-0.5-0.5-1-1-1.5-1.5
		c-0.7,0.6-1.5,1.1-2.2,1.7C408.6,240.4,409.3,241,410.1,241.5"/>
	<path clip-path="url(#SVGID_2_)" fill="#4875B8" d="M473.5,132.2c-1.4-0.2-3.5-0.4-6.2-0.8c-1.5-0.3-3.2-0.5-5.1-0.9
		c0,0.7,0.1,1.4,0.1,2.1c0,0.1,0,0.2,0,0.3c1.8,0,3.5,0,5,0c2.7,0,4.8-0.3,6.3-0.3c1.4-0.1,2.2-0.2,2.2-0.2S474.9,132.4,473.5,132.2
		"/>
	<path clip-path="url(#SVGID_2_)" fill="#4875B8" d="M206.9,77c-2.2-0.6-4-1.1-5.6-1.5c-3.1-0.8-5-1.2-5-1.2s1.5,1,4.3,2.7
		c1.4,0.8,3.1,1.9,5.1,2.9c0.6,0.3,1.1,0.5,1.7,0.8c0.5-1.1,1-2.2,1.5-3.3C208.3,77.3,207.5,77.1,206.9,77"/>
</g>
</svg>
